<svg width="250" height="212" viewBox="0 0 250 212" fill="none" xmlns="http://www.w3.org/2000/svg">
<rect width="250" height="212" fill="url(#paint0_linear_3116_17)"/>
<path d="M123.63 58.8656C124.135 58.5671 124.639 58.2686 125.144 58C133.72 63.0144 142.296 67.999 150.872 72.9539C150.901 80.4159 150.901 87.8773 150.872 95.3095C142.266 100.294 133.69 105.279 125.144 110.293C116.538 105.309 107.903 100.294 99.2975 95.2797C99.3267 87.8177 99.2677 80.3861 99.3267 72.9539C99.7719 72.7446 100.187 72.5061 100.603 72.2374C108.289 67.7901 115.945 63.3129 123.63 58.8656ZM124.877 64.3278C118.319 68.1482 111.76 71.9389 105.202 75.7594C104.965 75.9383 104.638 76.0277 104.461 76.2967C109.505 79.1917 114.55 82.1469 119.595 85.0717L119.98 85.191C121.494 83.2811 123.096 81.4606 124.61 79.5501C121.672 77.819 118.734 76.088 115.767 74.416C116.123 74.0284 116.657 73.8191 117.102 73.521C118.556 72.6551 119.951 71.73 121.405 70.9241C129.506 75.67 137.666 80.296 145.768 85.0419C145.798 82.1171 145.798 79.1619 145.768 76.2371C139.061 72.2669 132.266 68.387 125.559 64.4471C125.322 64.2979 125.085 64.1486 124.877 64.3278ZM129.684 82.565C128.171 84.4749 126.568 86.3258 125.025 88.2357C127.815 89.8177 130.574 91.4593 133.364 93.0412C133.364 93.1009 133.364 93.2201 133.364 93.2797C131.732 94.3543 130.07 95.399 128.438 96.5033C128.259 96.6232 128.052 96.8319 127.815 96.6828C120.01 92.1754 112.265 87.5792 104.431 83.132C104.371 86.0568 104.431 88.9816 104.401 91.8773C111.197 95.9064 118.052 99.8169 124.877 103.816C125.174 104.025 125.47 103.667 125.767 103.577C132.384 99.7269 139.031 95.8766 145.649 92.0263C145.649 91.9667 145.619 91.8176 145.619 91.7282C140.486 88.7431 135.352 85.7581 130.218 82.7736C130.07 82.6842 129.892 82.6246 129.684 82.565Z" fill="white"/>
<path d="M93.3665 124.452C96.363 124.155 99.5378 124.422 102.297 125.728C104.73 126.916 106.629 128.936 107.667 131.43C109.091 134.697 109.24 138.379 108.943 141.884C108.616 145.18 107.4 148.565 104.878 150.822C102.356 153.079 98.9149 154 95.5625 154C92.4176 154.029 89.1243 153.376 86.6023 151.416C84.0511 149.516 82.5972 146.457 82.0631 143.398C81.5887 140.607 81.5887 137.756 82.0631 134.964C82.5972 131.965 83.9623 129.025 86.3948 127.095C88.353 125.491 90.8452 124.689 93.3665 124.452ZM93.4262 129.648C91.7649 130.035 90.3111 131.074 89.4801 132.588C88.3231 134.608 88.0561 136.984 88.0859 139.27C88.1157 141.557 88.3828 143.962 89.5696 145.952C90.5185 147.466 92.0611 148.476 93.8416 148.744C96.096 149.129 98.6478 148.744 100.339 147.051C101.882 145.417 102.416 143.131 102.623 140.963C102.712 139.003 102.742 137.043 102.297 135.113C101.882 133.272 100.962 131.4 99.3005 130.391C97.5498 129.352 95.3843 129.233 93.4262 129.648Z" fill="white"/>
<path d="M52 124.732H58.156C58.156 128.51 58.156 132.287 58.156 136.034C61.9999 136.034 65.8438 136.034 69.6878 136.034C69.6878 132.257 69.6878 128.48 69.6878 124.732H75.8437C75.8437 134.339 75.8437 143.975 75.8437 153.581H69.7176C69.7176 149.447 69.7176 145.283 69.7176 141.15C65.8736 141.12 62.0303 141.15 58.1864 141.15C58.1864 145.313 58.1864 149.447 58.1864 153.611H52C52 143.975 52 134.369 52 124.732Z" fill="white"/>
<path d="M112.587 124.732H134.086C134.086 126.43 134.086 128.127 134.086 129.823C131.527 129.823 128.939 129.823 126.38 129.823C126.38 137.743 126.38 145.692 126.38 153.611H120.351C120.322 152.777 120.381 151.944 120.322 151.11C120.381 150.307 120.381 149.473 120.322 148.669C120.381 144.084 120.381 139.499 120.322 134.885C120.381 134.319 120.381 133.754 120.322 133.188C120.381 132.086 120.322 130.985 120.351 129.883C117.763 129.823 115.175 129.883 112.587 129.853C112.587 128.127 112.587 126.43 112.587 124.732Z" fill="white"/>
<path d="M138.776 124.732H147.59C150.548 124.732 153.625 124.881 156.314 126.221C158.106 127.143 159.271 128.898 159.45 130.891C159.54 132.2 159.54 133.539 159.092 134.759C158.554 136.306 157.329 137.645 155.746 138.091C155.507 138.21 155.119 138.121 155.059 138.448C156.672 138.805 158.345 139.549 159.242 141.007C160.346 142.792 160.436 145.053 160.107 147.076C159.689 149.456 157.927 151.42 155.776 152.402C153.206 153.651 150.249 153.651 147.47 153.592H138.836C138.776 143.982 138.776 134.372 138.776 124.732ZM144.901 129.731C144.901 131.843 144.901 133.985 144.901 136.098C146.186 136.157 147.44 136.098 148.725 136.128C149.95 136.128 151.294 136.009 152.28 135.235C153.206 134.461 153.326 133.122 153.117 131.992C152.907 130.951 151.951 130.267 150.966 130.058C148.994 129.582 146.963 129.79 144.901 129.731ZM144.901 141.037C144.901 143.535 144.901 146.034 144.901 148.534C146.514 148.534 148.128 148.563 149.771 148.534C150.936 148.415 152.191 148.147 152.997 147.254C153.864 146.332 153.923 144.964 153.774 143.774C153.565 142.435 152.34 141.572 151.085 141.304C149.054 140.828 146.963 141.067 144.901 141.037Z" fill="white"/>
<path d="M165.748 124.732H172.001C172.001 134.349 172.001 143.995 172.001 153.611H165.748C165.748 143.995 165.748 134.378 165.748 124.732Z" fill="white"/>
<path d="M176.706 124.732C183.877 124.732 191.019 124.732 198.191 124.732C198.191 126.428 198.191 128.123 198.191 129.848C195.634 129.848 193.047 129.848 190.49 129.848C190.49 137.759 190.49 145.67 190.49 153.611C188.463 153.611 186.434 153.611 184.406 153.611C184.406 145.7 184.406 137.759 184.406 129.848C181.849 129.848 179.263 129.848 176.706 129.848C176.676 128.153 176.706 126.428 176.706 124.732Z" fill="white"/>
<defs>
<linearGradient id="paint0_linear_3116_17" x1="-3.72529e-06" y1="106" x2="250" y2="106" gradientUnits="userSpaceOnUse">
<stop stop-color="#1AB394"/>
<stop offset="1" stop-color="#00526B"/>
</linearGradient>
</defs>
</svg>
