<svg clip-rule="evenodd" fill-rule="evenodd" height="512" stroke-linejoin="round" stroke-miterlimit="2" viewBox="0 0 64 64" width="512" xmlns="http://www.w3.org/2000/svg"><g transform="translate(-276 -276)"><g id="ICON" transform="translate(4.5 8.5)"><g transform="translate(132.5 -9)"><path d="m158.421 309.228 7 9c.352.453.882.732 1.455.768.572.036 1.133-.176 1.538-.582l17-17c.781-.78.781-2.048 0-2.828-.78-.781-2.048-.781-2.828 0l-15.398 15.398s-5.609-7.212-5.609-7.212c-.678-.871-1.936-1.028-2.807-.351-.871.678-1.028 1.936-.351 2.807z"/></g><g transform="matrix(1.05 0 0 1.05 52.55 265.9)"><path d="m260.905 15.81c0-1.516-.602-2.969-1.674-4.041s-2.525-1.674-4.041-1.674c-7.637 0-24.743 0-32.38 0-1.516 0-2.969.602-4.041 1.674s-1.674 2.525-1.674 4.041v32.38c0 1.516.602 2.969 1.674 4.041s2.525 1.674 4.041 1.674h32.38c1.516 0 2.969-.602 4.041-1.674s1.674-2.525 1.674-4.041zm-3.81 0v32.38c0 .506-.2.99-.558 1.347-.357.358-.841.558-1.347.558h-32.38c-.506 0-.99-.2-1.347-.558-.358-.357-.558-.841-.558-1.347v-32.38c0-.506.2-.99.558-1.347.357-.358.841-.558 1.347-.558h32.38c.506 0 .99.2 1.347.558.358.357.558.841.558 1.347z"/></g></g></g></svg>