<?xml version="1.0" encoding="UTF-8"?>
<svg id="Layer_2" data-name="Layer 2" xmlns="http://www.w3.org/2000/svg" viewBox="0 0 92.89 66.19">
  <defs>
    <style>
      .cls-1 {
        fill: #231f20;
      }
    </style>
  </defs>
  <g id="Layer_1-2" data-name="Layer 1">
    <path class="cls-1" d="m92.89,19.71l-40.87-9.58V0H0v56.23h12.6c1.32,5.7,6.43,9.96,12.52,9.96s11.2-4.26,12.52-9.96h14.39s6.28,0,6.28,0c1.32,5.7,6.43,9.96,12.52,9.96s11.2-4.26,12.52-9.96h9.55V19.71ZM3,3h46.02v19.13l-.05,31.1h-11c-.05-7.05-5.8-12.77-12.86-12.77s-12.81,5.72-12.86,12.77H3V3Zm22.12,60.19c-5.44,0-9.86-4.42-9.86-9.86s4.42-9.86,9.86-9.86,9.86,4.42,9.86,9.86-4.42,9.86-9.86,9.86Zm45.7,0c-5.44,0-9.86-4.42-9.86-9.86s4.42-9.86,9.86-9.86,9.86,4.42,9.86,9.86-4.42,9.86-9.86,9.86Zm19.07-9.96h-6.21c-.06-7.04-5.8-12.76-12.86-12.76s-12.8,5.72-12.86,12.76h-5.94V13.22s37.87,8.87,37.87,8.87v31.14Z"/>
  </g>
</svg>