<?xml version="1.0" encoding="UTF-8"?>
<svg id="Layer_2" data-name="Layer 2" xmlns="http://www.w3.org/2000/svg" viewBox="0 0 297.33 211.21">
  <defs>
    <style>
      .cls-1 {
        fill: #fff;
      }
    </style>
  </defs>
  <g id="Layer_1-2" data-name="Layer 1">
    <path class="cls-1" d="m142.99,71.49C142.99,32.01,110.98,0,71.49,0S0,32.01,0,71.49s29.99,69.43,67.71,71.39c-6.99,27.71-23.37,51.68-45.57,68.32,66.69-1.47,118.3-66.89,120.96-134.6.07-1.71-.04-3.42-.11-5.12Z"/>
    <path class="cls-1" d="m297.2,71.49C297.2,32.01,265.19,0,225.71,0s-71.49,32.01-71.49,71.49,29.99,69.43,67.71,71.39c-6.99,27.71-23.37,51.68-45.57,68.32,66.69-1.47,118.3-66.89,120.96-134.6.07-1.71-.04-3.42-.11-5.12Z"/>
  </g>
</svg>